# xmcd CD database file
#
# Track frame offsets:
#	150
#	23214
#	43725
#	61237
#	82280
#	100586
#	119296
#	131712
#	150861
#	163956
#	185477
#	205834
#
# Disc length: 3003 seconds
#
# Revision: 5
# Processed by: cddbd v1.5.1PL2 Copyright (c) Steve Scherf et al.
# Submitted via: jetAudio 5
#
DISCID=9f0bb90c
DTITLE=Joe Cocker - Joe Cocker's Greatest Hits
DYEAR=1987
DGENRE=Rock
TTITLE0=With A Little Help From My Friends
TTITLE1=Woman To Woman
TTITLE2=The Jealous Kind
TTITLE3=Black-Eyed Blues
TTITLE4=I Think It's Going To Rain
TTITLE5=Cry Me A River
TTITLE6=You Are So Beautiful
TTITLE7=Feeling Alright
TTITLE8=Delta Lady
TTITLE9=Darling Be Home Soon
TTITLE10=High Time We Went
TTITLE11=The Letter
EXTD=YEAR: 1987 ID3G: 17
EXTT0=
EXTT1=
EXTT2=
EXTT3=
EXTT4=
EXTT5=
EXTT6=
EXTT7=
EXTT8=
EXTT9=
EXTT10=
EXTT11=
PLAYORDER=
